<svg xmlns="http://www.w3.org/2000/svg" width="631.357" height="844.051" viewBox="0 0 631.357 844.051">
  <path id="Path_8230" data-name="Path 8230" d="M62.016,493.841l.722,402.911,179.793.04c5.453-102.046,1.263-266.382,1.463-379.855l44.647-25.722,1.083,404.8,178.47.642c3.629-165.559.762-358.744.521-527.652,18-10.946,25.181-17.422,44.427-21.351-1.183,171.513-3.769,380.2.421,549.283l175.984-.22c6.195-24.619-.06-774.005,2.787-842.651-17.8,5.313-61.128,35.887-82.839,50.341L84.711,447.569C60.673,462.3,62.016,460.661,62.016,493.841" transform="translate(-61.506 -53.382)" fill="#e3e3e3" stroke="#fc9200" stroke-width="1" fill-rule="evenodd"/>
</svg>
