<svg id="info-circle-fill" xmlns="http://www.w3.org/2000/svg" width="11" height="11" viewBox="0 0 11 11">
  <g id="Group_163356" data-name="Group 163356">
    <path id="Path_7571" data-name="Path 7571" d="M5.5,11A5.5,5.5,0,1,0,0,5.5,5.5,5.5,0,0,0,5.5,11Zm.639-6.471L5.452,7.764c-.048.234.02.366.209.366a.76.76,0,0,0,.472-.169l-.061.286a1.424,1.424,0,0,1-1.007.411c-.483,0-.689-.29-.556-.907l.507-2.384c.044-.2,0-.274-.2-.323l-.31-.056.056-.262,1.574-.2ZM5.5,3.781a.688.688,0,1,1,.688-.687A.688.688,0,0,1,5.5,3.781Z" fill="#d90236"/>
  </g>
</svg>
