<svg xmlns="http://www.w3.org/2000/svg" width="116.967" height="92.556" viewBox="0 0 116.967 92.556">
  <g id="Group_164349" data-name="Group 164349" transform="translate(1374.582 885.387)">
    <path id="Path_8174" data-name="Path 8174" d="M53.592,105.646q10.79,0,10.789,10.789V132.62q0,10.791-10.789,10.79T42.8,132.62v-2.7q0-10.79,10.79-10.789h5.395v-2.7q0-5.394-5.395-5.395H45.5v-5.395Zm5.395,18.882H53.592q-5.4,0-5.4,5.395v2.7q0,5.4,5.4,5.4t5.395-5.4Z" transform="translate(-1416.884 -937.249)" fill="#fff" stroke="#fff" stroke-width="1"/>
    <path id="Path_8177" data-name="Path 8177" d="M72.978,143.41V116.435q0-10.788,10.79-10.789t10.789,10.789V143.41H89.163V116.435q0-5.394-5.395-5.395t-5.4,5.395V143.41Z" transform="translate(-1415.597 -937.249)" fill="#fff" stroke="#fff" stroke-miterlimit="5" stroke-width="2.016"/>
    <path id="Path_8179" data-name="Path 8179" d="M103.155,143.41V116.435q0-10.788,10.79-10.789h8.092v5.395h-8.092q-5.4,0-5.4,5.395v2.7h5.4q10.79,0,10.789,10.789V143.41H119.34V129.923q0-5.394-5.395-5.395h-5.4V143.41Z" transform="translate(-1414.311 -937.249)" fill="#fff" stroke="#fff" stroke-miterlimit="5" stroke-width="2.016"/>
    <path id="Path_8180" data-name="Path 8180" d="M144.12,143.41q-10.79,0-10.79-10.79V121.831h5.4V132.62q0,5.4,5.395,5.4t5.395-5.4V116.435q0-5.394-5.395-5.395h-8.092v-5.395h8.092q10.79,0,10.79,10.789V132.62q0,10.791-10.79,10.79" transform="translate(-1413.025 -937.249)" fill="#fff" stroke="#fff" stroke-width="1"/>
    <g id="Group_164302" data-name="Group 164302" transform="translate(-1374.082 -885.387)">
      <path id="Path_8175" data-name="Path 8175" d="M53.592,105.646q10.79,0,10.789,10.789V132.62q0,10.791-10.789,10.79T42.8,132.62v-2.7q0-10.79,10.79-10.789h5.395v-2.7q0-5.394-5.395-5.395H45.5v-5.395Zm5.395,18.882H53.592q-5.4,0-5.4,5.395v2.7q0,5.4,5.4,5.4t5.395-5.4Z" transform="translate(-42.802 -51.862)" fill="#fff"/>
      <path id="Path_8176" data-name="Path 8176" d="M72.978,143.41V116.435q0-10.788,10.79-10.789t10.789,10.789V143.41H89.163V116.435q0-5.394-5.395-5.395t-5.4,5.395V143.41Z" transform="translate(-41.516 -51.862)" fill="#fff"/>
      <path id="Path_8178" data-name="Path 8178" d="M103.155,143.41V116.435q0-10.788,10.79-10.789h8.092v5.395h-8.092q-5.4,0-5.4,5.395v2.7h5.4q10.79,0,10.789,10.789V143.41H119.34V129.923q0-5.394-5.395-5.395h-5.4V143.41Z" transform="translate(-40.229 -51.862)" fill="#fff"/>
      <path id="Path_8181" data-name="Path 8181" d="M144.12,143.41q-10.79,0-10.79-10.79V121.831h5.4V132.62q0,5.4,5.395,5.4t5.395-5.4V116.435q0-5.394-5.395-5.395h-8.092v-5.395h8.092q10.79,0,10.79,10.789V132.62Q154.91,143.411,144.12,143.41Z" transform="translate(-38.943 -51.862)" fill="#fff"/>
      <path id="Path_8182" data-name="Path 8182" d="M62,76.932l.038,20.954,9.35,0c.284-5.307.066-13.853.076-19.755L73.789,76.8l.056,21.052,9.281.033c.189-8.61.04-18.657.027-27.441a6.2,6.2,0,0,1,2.31-1.11c-.062,8.92-.2,19.772.022,28.566l9.152-.011c.322-1.28,0-40.253.145-43.823a28.117,28.117,0,0,0-4.308,2.618L63.183,74.526c-1.25.766-1.18.681-1.18,2.406" transform="translate(-41.984 -54.061)" fill="#fc9200" fill-rule="evenodd"/>
      <path id="Path_8183" data-name="Path 8183" d="M96.509,97.067l9.845.048.029-9.372c.5,0,.234-.032.673.21.148.081.5.362.742.534l11.4,7.775c1.984,1.444,2.636.851,6.463.851,3.193,0,6.712.143,9.863-.026-.666-.927-18.566-12.09-19.411-12.638-3.188-2.064-6.26-4.079-9.746-6.239-1.7-1.053-8.635-5.806-9.866-6.169Z" transform="translate(-40.513 -53.295)" fill="#fc9200" fill-rule="evenodd"/>
      <path id="Path_8184" data-name="Path 8184" d="M96.519,64.3l16.969,11.14c-.843,1.1-2.331,1.692-3.215,2.769a70.156,70.156,0,0,0,8.1,5.245l5.226-3.682a58.865,58.865,0,0,0,5.284-3.907c-1.051-1.033-21.741-14.741-24.116-16.379-1.16-.8-7.011-5.028-8.271-5.427Z" transform="translate(-40.513 -54.061)" fill="#fc9200" fill-rule="evenodd"/>
    </g>
  </g>
</svg>
