<svg xmlns="http://www.w3.org/2000/svg" width="193.389" height="22.141" viewBox="0 0 193.389 22.141">
  <g id="Group_164391" data-name="Group 164391" transform="translate(1351.953 452.894)">
    <path id="Path_8199" data-name="Path 8199" d="M60.724,478.283q5.321,0,5.321,5.321v7.983q0,5.322-5.321,5.321T55.4,491.587v-1.33q0-5.322,5.322-5.323h2.661V483.6a2.352,2.352,0,0,0-2.661-2.661H56.732v-2.661Zm2.661,9.313H60.724a2.352,2.352,0,0,0-2.661,2.661v1.33a2.352,2.352,0,0,0,2.661,2.661,2.352,2.352,0,0,0,2.661-2.661Z" transform="translate(-1406.851 -928.165)" fill="#fff" stroke="#fff" stroke-width="1"/>
    <path id="Path_8200" data-name="Path 8200" d="M60.724,478.283q5.321,0,5.321,5.321v7.983q0,5.322-5.321,5.321T55.4,491.587v-1.33q0-5.322,5.322-5.323h2.661V483.6a2.352,2.352,0,0,0-2.661-2.661H56.732v-2.661Zm2.661,9.313H60.724a2.352,2.352,0,0,0-2.661,2.661v1.33a2.352,2.352,0,0,0,2.661,2.661,2.352,2.352,0,0,0,2.661-2.661Z" transform="translate(-1406.851 -928.165)" fill="#fff" stroke="#fff" stroke-miterlimit="5" stroke-width="1.008"/>
    <path id="Path_8196" data-name="Path 8196" d="M244.114,478.033h3.607l4.818,8.555a2.5,2.5,0,0,0,.348.5.5.5,0,0,0,.7,0,2.5,2.5,0,0,0,.348-.5l4.767-8.555h3.478V496.61h-3.788V485.273l-1.958,3.376a5.469,5.469,0,0,1-1.623,1.972,3.145,3.145,0,0,1-1.7.5,2.951,2.951,0,0,1-1.7-.529,5.706,5.706,0,0,1-1.571-1.97l-1.881-3.324V496.61h-3.839Z" transform="translate(-1466.424 -928.086)" fill="#fff"/>
    <rect id="Rectangle_1177" data-name="Rectangle 1177" width="3.916" height="18.577" transform="translate(-1200.64 -450.053)" fill="#fff"/>
    <path id="Path_8197" data-name="Path 8197" d="M286.775,478.032h7.086a11.144,11.144,0,0,1,2.512.271,5.5,5.5,0,0,1,2.035.9,4.335,4.335,0,0,1,1.353,1.649,5.783,5.783,0,0,1,.489,2.512,5.4,5.4,0,0,1-.322,1.881,5.786,5.786,0,0,1-.863,1.572A5.506,5.506,0,0,1,297.8,488a6.059,6.059,0,0,1-1.495.747,2.923,2.923,0,0,1,.786.541,9.971,9.971,0,0,1,.734.8l4.1,4.767L298.963,497l-4.586-5.385q-.465-.541-.825-.9a5.375,5.375,0,0,0-.67-.58,1.873,1.873,0,0,0-.619-.3,2.882,2.882,0,0,0-.7-.077h-.928v6.854h-3.865Zm6.364,8.5a3.708,3.708,0,0,0,2.332-.67,2.358,2.358,0,0,0,.863-1.984,3.382,3.382,0,0,0-.232-1.352,1.969,1.969,0,0,0-.644-.825,2.413,2.413,0,0,0-1.005-.4,7.721,7.721,0,0,0-1.314-.1h-2.5v5.334Z" transform="translate(-1479.892 -928.086)" fill="#fff"/>
    <path id="Path_8198" data-name="Path 8198" d="M314.98,481.2a7.87,7.87,0,0,1,.631-1.559,3.949,3.949,0,0,1,.928-1.147,3.83,3.83,0,0,1,1.353-.708,6.428,6.428,0,0,1,1.88-.245,6.159,6.159,0,0,1,1.8.232,3.443,3.443,0,0,1,1.263.683,3.913,3.913,0,0,1,.863,1.095,8.328,8.328,0,0,1,.606,1.469l4.509,14.97-3.865.85-1.674-5.668h-7.317l-1.7,5.668-3.762-.85Zm7.343,6.7-1.753-6.209a1.282,1.282,0,0,0-.386-.682.9.9,0,0,0-.541-.168.841.841,0,0,0-.554.18,1.414,1.414,0,0,0-.373.67l-1.855,6.209Z" transform="translate(-1487.38 -927.932)" fill="#fff"/>
    <path id="Path_8201" data-name="Path 8201" d="M78.079,496.908V483.6q0-5.321,5.322-5.322t5.321,5.322v13.3H86.062V483.6a2.661,2.661,0,0,0-5.322,0v13.3Z" transform="translate(-1414.01 -928.165)" fill="#fff" stroke="#fff" stroke-width="1"/>
    <path id="Path_8202" data-name="Path 8202" d="M78.079,496.908V483.6q0-5.321,5.322-5.322t5.321,5.322v13.3H86.062V483.6a2.661,2.661,0,0,0-5.322,0v13.3Z" transform="translate(-1414.01 -928.165)" fill="#fff" stroke="#fff" stroke-miterlimit="5" stroke-width="1.008"/>
    <path id="Path_8203" data-name="Path 8203" d="M100.756,496.908V483.6q0-5.321,5.322-5.322h3.991v2.661h-3.991a2.352,2.352,0,0,0-2.661,2.661v1.33h2.661q5.321,0,5.321,5.322v6.652h-2.661v-6.652a2.352,2.352,0,0,0-2.661-2.661h-2.661v9.313Z" transform="translate(-1421.169 -928.165)" fill="#fff" stroke="#fff" stroke-width="1"/>
    <path id="Path_8204" data-name="Path 8204" d="M100.756,496.908V483.6q0-5.321,5.322-5.322h3.991v2.661h-3.991a2.352,2.352,0,0,0-2.661,2.661v1.33h2.661q5.321,0,5.321,5.322v6.652h-2.661v-6.652a2.352,2.352,0,0,0-2.661-2.661h-2.661v9.313Z" transform="translate(-1421.169 -928.165)" fill="#fff" stroke="#fff" stroke-miterlimit="5" stroke-width="1.008"/>
    <path id="Path_8205" data-name="Path 8205" d="M128.755,496.908q-5.322,0-5.322-5.321v-5.323h2.661v5.323a2.661,2.661,0,0,0,5.322,0V483.6a2.352,2.352,0,0,0-2.661-2.661h-3.992v-2.661h3.992q5.321,0,5.321,5.322v7.983q0,5.321-5.321,5.321" transform="translate(-1428.327 -928.165)" fill="#fff" stroke="#fff" stroke-width="1"/>
    <path id="Path_8206" data-name="Path 8206" d="M128.755,496.908q-5.322,0-5.322-5.321v-5.323h2.661v5.323a2.661,2.661,0,0,0,5.322,0V483.6a2.352,2.352,0,0,0-2.661-2.661h-3.992v-2.661h3.992q5.321,0,5.321,5.322v7.983Q134.076,496.908,128.755,496.908Z" transform="translate(-1428.327 -928.165)" fill="#fff" stroke="#fff" stroke-miterlimit="5" stroke-width="1.008"/>
    <path id="Path_8207" data-name="Path 8207" d="M168.691,485.232l.018,10.4h4.64c.14-2.634.032-6.875.038-9.8l1.152-.664.028,10.447,4.606.016c.093-4.272.019-9.258.013-13.617a3.068,3.068,0,0,1,1.147-.551c-.031,4.426-.1,9.812.011,14.176l4.542-.007c.16-.634,0-19.975.072-21.747a13.905,13.905,0,0,0-2.138,1.3l-13.544,8.856c-.621.38-.586.339-.586,1.195" transform="translate(-1442.614 -926.776)" fill="#fc9200" fill-rule="evenodd"/>
    <path id="Path_8208" data-name="Path 8208" d="M194.778,499.9l4.885.024.014-4.651c.249,0,.116-.016.334.1.073.04.25.179.368.265l5.656,3.859c.984.716,1.308.422,3.207.422,1.584,0,3.331.071,4.894-.012-.331-.461-9.213-6-9.632-6.272-1.582-1.025-3.107-2.024-4.837-3.1-.844-.523-4.285-2.882-4.9-3.062Z" transform="translate(-1450.848 -931.067)" fill="#fc9200" fill-rule="evenodd"/>
    <path id="Path_8209" data-name="Path 8209" d="M194.783,478.963l8.421,5.529c-.418.547-1.156.84-1.6,1.374a34.72,34.72,0,0,0,4.021,2.6l2.594-1.827a29.283,29.283,0,0,0,2.622-1.939c-.521-.512-10.79-7.315-11.968-8.128a41.541,41.541,0,0,0-4.1-2.693Z" transform="translate(-1450.848 -926.776)" fill="#fc9200" fill-rule="evenodd"/>
  </g>
</svg>
