<svg xmlns="http://www.w3.org/2000/svg" width="25.188" height="25.302" viewBox="0 0 25.188 25.302">
  <g id="whatsapp" transform="translate(0 0.001)">
    <g id="Group_163594" data-name="Group 163594" transform="translate(0 -0.001)">
      <path id="Path_7830" data-name="Path 7830" d="M21.509,3.678A12.42,12.42,0,0,0,12.642,0,12.547,12.547,0,0,0,1.773,18.8L0,25.3l6.648-1.743a12.545,12.545,0,0,0,5.993,1.526h.006A12.534,12.534,0,0,0,21.507,3.678ZM12.642,22.963a10.4,10.4,0,0,1-5.307-1.455l-.38-.228L3.011,22.315l1.053-3.848-.247-.4a10.417,10.417,0,1,1,8.824,4.893Z" transform="translate(0 0.001)" fill="#fff"/>
      <circle id="Ellipse_24" data-name="Ellipse 24" cx="1.5" cy="1.5" r="1.5" transform="translate(7 11)" fill="#fff"/>
      <circle id="Ellipse_25" data-name="Ellipse 25" cx="1.5" cy="1.5" r="1.5" transform="translate(11 11)" fill="#fff"/>
      <circle id="Ellipse_26" data-name="Ellipse 26" cx="1.5" cy="1.5" r="1.5" transform="translate(15 11)" fill="#fff"/>
    </g>
  </g>
</svg>
