<svg id="phone" xmlns="http://www.w3.org/2000/svg" width="21.684" height="21.684" viewBox="0 0 21.684 21.684">
  <path id="Path_7828" data-name="Path 7828" d="M21.684,17.125a5.083,5.083,0,0,1-.154,1.086,6.118,6.118,0,0,1-.323,1.055A4.129,4.129,0,0,1,19.328,20.9a5.971,5.971,0,0,1-2.865.785,6.112,6.112,0,0,1-.816-.054,6.327,6.327,0,0,1-.886-.193q-.485-.139-.724-.223t-.855-.316q-.616-.231-.755-.277a13.948,13.948,0,0,1-2.7-1.278,23.213,23.213,0,0,1-4.066-3.327,23.213,23.213,0,0,1-3.327-4.066,13.948,13.948,0,0,1-1.278-2.7Q1.016,9.117.785,8.5T.47,7.646Q.385,7.408.246,6.923a6.328,6.328,0,0,1-.193-.886A6.112,6.112,0,0,1,0,5.221,5.971,5.971,0,0,1,.785,2.356,4.129,4.129,0,0,1,2.418.477,6.118,6.118,0,0,1,3.473.154,5.083,5.083,0,0,1,4.559,0a.862.862,0,0,1,.323.046q.277.092.816,1.17.169.293.462.832t.539.978q.246.439.477.824.046.062.27.385a4.3,4.3,0,0,1,.331.547,1,1,0,0,1,.108.439,1.278,1.278,0,0,1-.439.77,7.507,7.507,0,0,1-.955.847,9.275,9.275,0,0,0-.955.816,1.173,1.173,0,0,0-.439.708,1.041,1.041,0,0,0,.077.347,3.362,3.362,0,0,0,.131.316q.054.108.216.37t.177.293a16.165,16.165,0,0,0,2.68,3.619A16.165,16.165,0,0,0,12,15.986q.031.015.293.177t.37.216a3.362,3.362,0,0,0,.316.131,1.041,1.041,0,0,0,.347.077,1.173,1.173,0,0,0,.708-.439,9.275,9.275,0,0,0,.816-.955,7.507,7.507,0,0,1,.847-.955,1.278,1.278,0,0,1,.77-.439,1,1,0,0,1,.439.108,4.3,4.3,0,0,1,.547.331q.323.223.385.27.385.231.824.477t.978.539q.539.293.832.462,1.078.539,1.17.816A.862.862,0,0,1,21.684,17.125Z" transform="translate(0)" fill="#fff"/>
</svg>
