<svg xmlns="http://www.w3.org/2000/svg" width="25.188" height="25.302" viewBox="0 0 25.188 25.302">
  <g id="whatsapp" transform="translate(0 0.001)">
    <g id="Group_163594" data-name="Group 163594" transform="translate(0 -0.001)">
      <path id="Path_7830" data-name="Path 7830" d="M21.509,3.678A12.42,12.42,0,0,0,12.642,0,12.547,12.547,0,0,0,1.773,18.8L0,25.3l6.648-1.743a12.545,12.545,0,0,0,5.993,1.526h.006A12.534,12.534,0,0,0,21.507,3.678ZM12.642,22.963a10.4,10.4,0,0,1-5.307-1.455l-.38-.228L3.011,22.315l1.053-3.848-.247-.4a10.417,10.417,0,1,1,8.824,4.893Zm5.717-7.8c-.312-.157-1.85-.914-2.14-1.022s-.5-.157-.7.157-.811,1.022-.992,1.226-.367.234-.68.079a8.554,8.554,0,0,1-2.518-1.558,9.561,9.561,0,0,1-1.744-2.17c-.18-.313-.017-.481.139-.637.138-.139.312-.367.468-.547a2,2,0,0,0,.313-.522.583.583,0,0,0-.024-.549c-.079-.157-.7-1.7-.968-2.325s-.511-.53-.7-.538-.391-.011-.6-.011a1.153,1.153,0,0,0-.837.391A3.511,3.511,0,0,0,6.277,9.75a6.07,6.07,0,0,0,1.281,3.24,13.929,13.929,0,0,0,5.35,4.732,17.429,17.429,0,0,0,1.785.661,4.3,4.3,0,0,0,1.97.127,3.245,3.245,0,0,0,2.116-1.491,2.623,2.623,0,0,0,.18-1.491C18.882,15.394,18.672,15.317,18.358,15.16Z" transform="translate(0 0.001)" fill="#fff"/>
    </g>
  </g>
</svg>
